<svg width="248" height="216" viewBox="0 0 248 216" fill="none" xmlns="http://www.w3.org/2000/svg">
<path d="M112 168.667C122.309 168.667 130.667 160.309 130.667 150C130.667 139.691 122.309 131.333 112 131.333C101.691 131.333 93.3333 139.691 93.3333 150C93.3333 160.309 101.691 168.667 112 168.667ZM112 3.57628e-06L91.7927 35L132.207 35L112 3.57628e-06ZM115.5 150L115.5 31.5L108.5 31.5L108.5 150L115.5 150Z" fill="#E9E7DD"/>
<path d="M248 181L218.946 152.907L209.144 192.115L248 181ZM218.289 169.965L108.849 142.604L107.151 149.395L216.592 176.756L218.289 169.965Z" fill="#E9E7DD"/>
<path d="M0 216L40.404 215.078L19.4037 180.548L0 216ZM28.7321 202.622L114.991 150.162L111.353 144.181L25.0948 196.642L28.7321 202.622Z" fill="#E9E7DD"/>
</svg>
